<svg width="232" height="76" viewBox="0 0 232 76" fill="none" xmlns="http://www.w3.org/2000/svg">
<rect width="232" height="76" fill="#E5E5E5"/>
<path d="M53.4766 5.56641C52.8438 5.56641 52.1172 5.67188 51.2969 5.88281C50.4766 6.09375 49.6445 6.375 48.8008 6.72656L49.1523 43.9922C49.1523 44.2734 49.5742 44.625 50.418 45.0469C51.2852 45.4453 52.5625 45.8086 54.25 46.1367V48H37.4805V46.1367C39.0742 45.8086 40.3633 45.457 41.3477 45.082C42.332 44.6836 42.8242 44.3203 42.8242 43.9922L42.5078 12.5977L27.2852 48H25.0352L9.74219 12.7383L9.42578 43.9922C9.42578 44.2734 9.83594 44.625 10.6562 45.0469C11.5 45.4453 12.7656 45.8086 14.4531 46.1367V48H0.0390625V46.1367C1.65625 45.8086 2.88672 45.457 3.73047 45.082C4.59766 44.6836 5.03125 44.3203 5.03125 43.9922L5.38281 6.90234C4.51562 6.41016 3.63672 6.07031 2.74609 5.88281C1.85547 5.67188 1.07031 5.56641 0.390625 5.56641V3.70312H11.1484C11.3828 3.70312 11.582 3.73828 11.7461 3.80859C11.9102 3.87891 12.0742 4.01953 12.2383 4.23047C12.4023 4.44141 12.5781 4.74609 12.7656 5.14453C12.9531 5.51953 13.1875 6.02344 13.4688 6.65625L27.1094 37.5586L40.4688 6.65625C40.7734 5.95312 41.0195 5.40234 41.207 5.00391C41.418 4.60547 41.5938 4.3125 41.7344 4.125C41.8984 3.9375 42.0625 3.82031 42.2266 3.77344C42.3906 3.72656 42.5781 3.70312 42.7891 3.70312H53.4766V5.56641ZM59.4531 48V46.1367C61.0469 45.8086 62.2422 45.457 63.0391 45.082C63.8594 44.6836 64.2695 44.3203 64.2695 43.9922V24.6914C64.2695 23.4961 64.2461 22.5352 64.1992 21.8086C64.1758 21.0586 64.0117 20.4844 63.707 20.0859C63.4258 19.6641 62.957 19.3594 62.3008 19.1719C61.6445 18.9844 60.6953 18.832 59.4531 18.7148V16.957C61.1172 16.6758 62.793 16.3008 64.4805 15.832C66.1914 15.3633 67.7148 14.8359 69.0508 14.25H70.5977V43.9922C70.5977 44.2734 70.9727 44.625 71.7227 45.0469C72.4961 45.4453 73.7383 45.8086 75.4492 46.1367V48H59.4531ZM71.7578 3.66797C71.7578 4.37109 71.6289 5.02734 71.3711 5.63672C71.1367 6.24609 70.8086 6.77344 70.3867 7.21875C69.9648 7.66406 69.4609 8.01563 68.875 8.27344C68.3125 8.53125 67.7031 8.66016 67.0469 8.66016C65.9219 8.66016 65.043 8.36719 64.4102 7.78125C63.8008 7.17188 63.4961 6.28125 63.4961 5.10938C63.4961 4.40625 63.6133 3.75 63.8477 3.14062C64.1055 2.53125 64.4453 2.00391 64.8672 1.55859C65.2891 1.11328 65.7812 0.773438 66.3438 0.539062C66.9062 0.28125 67.5039 0.152344 68.1367 0.152344C69.2383 0.152344 70.1172 0.445312 70.7734 1.03125C71.4297 1.59375 71.7578 2.47266 71.7578 3.66797ZM102.871 38.0508C102.871 39.7148 102.625 41.1445 102.133 42.3398C101.664 43.5117 101.043 44.5078 100.27 45.3281C99.5195 46.1484 98.6641 46.8047 97.7031 47.2969C96.7656 47.7891 95.8164 48.1641 94.8555 48.4219C93.918 48.6797 93.0273 48.8438 92.1836 48.9141C91.3633 49.0078 90.6953 49.0547 90.1797 49.0547C89.5469 49.0547 88.8555 48.9961 88.1055 48.8789C87.3555 48.7852 86.5703 48.6328 85.75 48.4219C84.9531 48.2109 84.1328 47.9414 83.2891 47.6133C82.4453 47.2852 81.6367 46.9102 80.8633 46.4883C80.6992 46.418 80.582 46.0312 80.5117 45.3281C80.4648 44.6016 80.4414 43.7695 80.4414 42.832C80.4648 41.8711 80.5352 40.8867 80.6523 39.8789C80.7695 38.8711 80.9219 38.0508 81.1094 37.418L83.043 37.8047C83.1602 38.8828 83.4648 39.8789 83.957 40.793C84.4492 41.6836 85.082 42.4688 85.8555 43.1484C86.6289 43.8047 87.5195 44.3203 88.5273 44.6953C89.5352 45.0703 90.6133 45.2578 91.7617 45.2578C93.4492 45.2578 94.7852 44.8242 95.7695 43.957C96.7539 43.0664 97.2461 41.8359 97.2461 40.2656C97.2461 39.3281 97 38.4961 96.5078 37.7695C96.0156 37.043 95.3594 36.375 94.5391 35.7656C93.7422 35.1562 92.8281 34.582 91.7969 34.043C90.7656 33.5039 89.7109 32.9531 88.6328 32.3906C87.6484 31.8984 86.6875 31.3711 85.75 30.8086C84.8125 30.2227 83.9688 29.5781 83.2188 28.875C82.4922 28.1484 81.9062 27.3516 81.4609 26.4844C81.0156 25.5938 80.793 24.5859 80.793 23.4609C80.793 22.0078 81.1094 20.707 81.7422 19.5586C82.375 18.4102 83.207 17.4492 84.2383 16.6758C85.2695 15.8789 86.4531 15.2812 87.7891 14.8828C89.1484 14.4609 90.5312 14.25 91.9375 14.25C92.7578 14.25 93.625 14.3203 94.5391 14.4609C95.4766 14.5781 96.3789 14.7539 97.2461 14.9883C98.1367 15.2227 98.957 15.5039 99.707 15.832C100.48 16.1602 101.113 16.5352 101.605 16.957C101.746 17.0742 101.77 17.4141 101.676 17.9766C101.582 18.5156 101.418 19.125 101.184 19.8047C100.973 20.4609 100.727 21.1055 100.445 21.7383C100.188 22.3477 99.9648 22.7695 99.7773 23.0039L98.0547 22.7227C97.1172 20.918 96.0508 19.6172 94.8555 18.8203C93.6836 18 92.4648 17.5898 91.1992 17.5898C90.4492 17.5898 89.7695 17.707 89.1602 17.9414C88.5742 18.1758 88.0703 18.4805 87.6484 18.8555C87.25 19.207 86.9453 19.6172 86.7344 20.0859C86.5234 20.5547 86.418 21.0352 86.418 21.5273C86.418 22.2773 86.6289 22.957 87.0508 23.5664C87.4727 24.1523 88.0352 24.7148 88.7383 25.2539C89.4648 25.7695 90.2969 26.2734 91.2344 26.7656C92.1953 27.2578 93.2031 27.7852 94.2578 28.3477C95.2656 28.8633 96.2852 29.4141 97.3164 30C98.3477 30.5859 99.2734 31.2656 100.094 32.0391C100.914 32.7891 101.582 33.6562 102.098 34.6406C102.613 35.6016 102.871 36.7383 102.871 38.0508ZM131.488 38.0508C131.488 39.7148 131.242 41.1445 130.75 42.3398C130.281 43.5117 129.66 44.5078 128.887 45.3281C128.137 46.1484 127.281 46.8047 126.32 47.2969C125.383 47.7891 124.434 48.1641 123.473 48.4219C122.535 48.6797 121.645 48.8438 120.801 48.9141C119.98 49.0078 119.312 49.0547 118.797 49.0547C118.164 49.0547 117.473 48.9961 116.723 48.8789C115.973 48.7852 115.188 48.6328 114.367 48.4219C113.57 48.2109 112.75 47.9414 111.906 47.6133C111.062 47.2852 110.254 46.9102 109.48 46.4883C109.316 46.418 109.199 46.0312 109.129 45.3281C109.082 44.6016 109.059 43.7695 109.059 42.832C109.082 41.8711 109.152 40.8867 109.27 39.8789C109.387 38.8711 109.539 38.0508 109.727 37.418L111.66 37.8047C111.777 38.8828 112.082 39.8789 112.574 40.793C113.066 41.6836 113.699 42.4688 114.473 43.1484C115.246 43.8047 116.137 44.3203 117.145 44.6953C118.152 45.0703 119.23 45.2578 120.379 45.2578C122.066 45.2578 123.402 44.8242 124.387 43.957C125.371 43.0664 125.863 41.8359 125.863 40.2656C125.863 39.3281 125.617 38.4961 125.125 37.7695C124.633 37.043 123.977 36.375 123.156 35.7656C122.359 35.1562 121.445 34.582 120.414 34.043C119.383 33.5039 118.328 32.9531 117.25 32.3906C116.266 31.8984 115.305 31.3711 114.367 30.8086C113.43 30.2227 112.586 29.5781 111.836 28.875C111.109 28.1484 110.523 27.3516 110.078 26.4844C109.633 25.5938 109.41 24.5859 109.41 23.4609C109.41 22.0078 109.727 20.707 110.359 19.5586C110.992 18.4102 111.824 17.4492 112.855 16.6758C113.887 15.8789 115.07 15.2812 116.406 14.8828C117.766 14.4609 119.148 14.25 120.555 14.25C121.375 14.25 122.242 14.3203 123.156 14.4609C124.094 14.5781 124.996 14.7539 125.863 14.9883C126.754 15.2227 127.574 15.5039 128.324 15.832C129.098 16.1602 129.73 16.5352 130.223 16.957C130.363 17.0742 130.387 17.4141 130.293 17.9766C130.199 18.5156 130.035 19.125 129.801 19.8047C129.59 20.4609 129.344 21.1055 129.062 21.7383C128.805 22.3477 128.582 22.7695 128.395 23.0039L126.672 22.7227C125.734 20.918 124.668 19.6172 123.473 18.8203C122.301 18 121.082 17.5898 119.816 17.5898C119.066 17.5898 118.387 17.707 117.777 17.9414C117.191 18.1758 116.688 18.4805 116.266 18.8555C115.867 19.207 115.562 19.6172 115.352 20.0859C115.141 20.5547 115.035 21.0352 115.035 21.5273C115.035 22.2773 115.246 22.957 115.668 23.5664C116.09 24.1523 116.652 24.7148 117.355 25.2539C118.082 25.7695 118.914 26.2734 119.852 26.7656C120.812 27.2578 121.82 27.7852 122.875 28.3477C123.883 28.8633 124.902 29.4141 125.934 30C126.965 30.5859 127.891 31.2656 128.711 32.0391C129.531 32.7891 130.199 33.6562 130.715 34.6406C131.23 35.6016 131.488 36.7383 131.488 38.0508ZM136.938 48V46.1367C138.531 45.8086 139.727 45.457 140.523 45.082C141.344 44.6836 141.754 44.3203 141.754 43.9922V24.6914C141.754 23.4961 141.73 22.5352 141.684 21.8086C141.66 21.0586 141.496 20.4844 141.191 20.0859C140.91 19.6641 140.441 19.3594 139.785 19.1719C139.129 18.9844 138.18 18.832 136.938 18.7148V16.957C138.602 16.6758 140.277 16.3008 141.965 15.832C143.676 15.3633 145.199 14.8359 146.535 14.25H148.082V43.9922C148.082 44.2734 148.457 44.625 149.207 45.0469C149.98 45.4453 151.223 45.8086 152.934 46.1367V48H136.938ZM149.242 3.66797C149.242 4.37109 149.113 5.02734 148.855 5.63672C148.621 6.24609 148.293 6.77344 147.871 7.21875C147.449 7.66406 146.945 8.01563 146.359 8.27344C145.797 8.53125 145.188 8.66016 144.531 8.66016C143.406 8.66016 142.527 8.36719 141.895 7.78125C141.285 7.17188 140.98 6.28125 140.98 5.10938C140.98 4.40625 141.098 3.75 141.332 3.14062C141.59 2.53125 141.93 2.00391 142.352 1.55859C142.773 1.11328 143.266 0.773438 143.828 0.539062C144.391 0.28125 144.988 0.152344 145.621 0.152344C146.723 0.152344 147.602 0.445312 148.258 1.03125C148.914 1.59375 149.242 2.47266 149.242 3.66797ZM182.324 32.1797C182.324 30.3281 182.055 28.5703 181.516 26.9062C180.977 25.2188 180.262 23.7422 179.371 22.4766C178.504 21.1875 177.496 20.168 176.348 19.418C175.223 18.668 174.062 18.293 172.867 18.293C171.18 18.293 169.773 18.6328 168.648 19.3125C167.523 19.9688 166.621 20.8828 165.941 22.0547C165.262 23.2266 164.77 24.6094 164.465 26.2031C164.184 27.7969 164.043 29.5195 164.043 31.3711C164.043 33.2227 164.324 34.9805 164.887 36.6445C165.473 38.2852 166.223 39.7266 167.137 40.9688C168.051 42.2109 169.07 43.1953 170.195 43.9219C171.32 44.6484 172.422 45.0117 173.5 45.0117C175.07 45.0117 176.406 44.7188 177.508 44.1328C178.633 43.5234 179.547 42.668 180.25 41.5664C180.977 40.4648 181.504 39.1172 181.832 37.5234C182.16 35.9297 182.324 34.1484 182.324 32.1797ZM188.898 30.9492C188.898 33.293 188.453 35.5547 187.562 37.7344C186.695 39.9141 185.512 41.8477 184.012 43.5352C182.512 45.1992 180.766 46.5352 178.773 47.543C176.805 48.5508 174.719 49.0547 172.516 49.0547C170.219 49.0547 168.145 48.6328 166.293 47.7891C164.441 46.9453 162.859 45.7852 161.547 44.3086C160.234 42.832 159.215 41.0742 158.488 39.0352C157.785 36.9961 157.434 34.7812 157.434 32.3906C157.434 30.8438 157.621 29.3203 157.996 27.8203C158.395 26.3203 158.945 24.9023 159.648 23.5664C160.352 22.207 161.195 20.9648 162.18 19.8398C163.188 18.6914 164.301 17.707 165.52 16.8867C166.738 16.0664 168.051 15.4219 169.457 14.9531C170.863 14.4844 172.34 14.25 173.887 14.25C176.16 14.25 178.211 14.6719 180.039 15.5156C181.891 16.3594 183.473 17.5312 184.785 19.0312C186.098 20.5078 187.105 22.2656 187.809 24.3047C188.535 26.3438 188.898 28.5586 188.898 30.9492ZM215.055 48V46.1367C216.742 45.6914 217.961 45.3047 218.711 44.9766C219.484 44.6484 219.871 44.3203 219.871 43.9922V26.2734C219.871 24.8906 219.801 23.7539 219.66 22.8633C219.52 21.9727 219.273 21.2812 218.922 20.7891C218.594 20.2734 218.16 19.9219 217.621 19.7344C217.082 19.5234 216.426 19.418 215.652 19.418C214.973 19.418 214.223 19.5586 213.402 19.8398C212.605 20.1211 211.738 20.5898 210.801 21.2461C209.887 21.8789 208.902 22.7227 207.848 23.7773C206.793 24.8086 205.703 26.0977 204.578 27.6445V43.9922C204.578 44.3438 205 44.707 205.844 45.082C206.711 45.457 207.906 45.8086 209.43 46.1367V48H193.434V46.1367C194.98 45.7383 196.164 45.3867 196.984 45.082C197.828 44.7539 198.25 44.3906 198.25 43.9922V23.25C198.25 22.3359 198.215 21.6094 198.145 21.0703C198.098 20.5312 197.922 20.1094 197.617 19.8047C197.312 19.5 196.832 19.2773 196.176 19.1367C195.543 18.9961 194.629 18.8555 193.434 18.7148V16.957C195.238 16.6992 196.879 16.3477 198.355 15.9023C199.832 15.457 201.297 14.9062 202.75 14.25L204.051 15.5508L204.438 23.0742C205.586 21.6445 206.781 20.3789 208.023 19.2773C209.289 18.1758 210.531 17.2617 211.75 16.5352C212.992 15.7852 214.188 15.2227 215.336 14.8477C216.484 14.4492 217.516 14.25 218.43 14.25C219.438 14.25 220.41 14.4141 221.348 14.7422C222.285 15.0469 223.105 15.5273 223.809 16.1836C224.535 16.8398 225.109 17.6836 225.531 18.7148C225.977 19.7227 226.199 20.9414 226.199 22.3711V43.9922C226.199 44.1562 226.281 44.3203 226.445 44.4844C226.609 44.625 226.879 44.7773 227.254 44.9414C227.629 45.1055 228.121 45.293 228.73 45.5039C229.363 45.6914 230.137 45.9023 231.051 46.1367V48H215.055Z" fill="black"/>
<path d="M43.8188 71.0039C43.7785 71.4378 43.7331 71.8617 43.6826 72.2754C43.6322 72.6891 43.5767 73.0776 43.5161 73.4409C43.4556 73.7941 43.395 74.1069 43.3345 74.3794C43.284 74.6418 43.2386 74.8486 43.1982 75H29.7266V74.1978C30.4128 74.0565 30.9425 73.9051 31.3159 73.7437C31.6893 73.5721 31.876 73.4157 31.876 73.2744V57.6685C31.876 57.5474 31.6994 57.396 31.3462 57.2144C30.993 57.0327 30.4531 56.8713 29.7266 56.73V55.9277H42.3052L42.835 56.3364C42.8148 56.5988 42.7845 56.9015 42.7441 57.2446C42.7038 57.5776 42.6533 57.9207 42.5928 58.2739C42.5322 58.617 42.4666 58.945 42.396 59.2578C42.3354 59.5706 42.2749 59.8229 42.2144 60.0146H41.3818C41.3314 59.0863 41.2052 58.4253 41.0034 58.0317C40.8016 57.6382 40.514 57.4414 40.1406 57.4414H34.752V63.8745H40.8521L41.2759 64.3286C41.1951 64.4699 41.0942 64.6263 40.9731 64.7979C40.8621 64.9694 40.741 65.1359 40.6099 65.2974C40.4888 65.4588 40.3626 65.6102 40.2314 65.7515C40.1104 65.8927 39.9943 66.0037 39.8833 66.0845C39.7319 65.9331 39.5654 65.807 39.3838 65.7061C39.2122 65.6051 39.0104 65.5194 38.7783 65.4487C38.5563 65.3781 38.2889 65.3276 37.9761 65.2974C37.6733 65.2671 37.3101 65.252 36.8862 65.252H34.752V72.5176C34.752 72.6689 34.7873 72.8052 34.8579 72.9263C34.9285 73.0373 35.0749 73.1382 35.2969 73.229C35.5189 73.3097 35.8317 73.3753 36.2354 73.4258C36.639 73.4661 37.1738 73.4863 37.8398 73.4863H39.6411C40.1053 73.4863 40.4989 73.451 40.8218 73.3804C41.1548 73.3097 41.4474 73.1735 41.6997 72.9717C41.952 72.7699 42.179 72.4873 42.3809 72.124C42.5928 71.7607 42.8047 71.2814 43.0166 70.686L43.8188 71.0039ZM54.4297 66.6899C54.3994 66.8009 54.359 66.9271 54.3086 67.0684C54.2682 67.1995 54.2228 67.3358 54.1724 67.4771C54.1219 67.6183 54.0715 67.7546 54.021 67.8857C53.9705 68.0068 53.9251 68.1077 53.8848 68.1885H45.9834L45.5596 67.7798C45.61 67.5578 45.6908 67.3055 45.8018 67.0229C45.9128 66.7404 46.0137 66.4982 46.1045 66.2964H54.021L54.4297 66.6899ZM71.0195 71.8062C70.3737 72.4823 69.748 73.0524 69.1426 73.5166C68.5472 73.9808 67.9619 74.3592 67.3867 74.6519C66.8115 74.9344 66.2464 75.1362 65.6914 75.2573C65.1465 75.3885 64.6016 75.4541 64.0566 75.4541C63.098 75.4541 62.1545 75.2422 61.2261 74.8184C60.2977 74.3945 59.4702 73.784 58.7437 72.9868C58.0171 72.1896 57.4318 71.2158 56.9878 70.0654C56.5438 68.9049 56.3218 67.5931 56.3218 66.1299C56.3218 64.5153 56.564 63.0521 57.0483 61.7402C57.5428 60.4284 58.2139 59.3083 59.0615 58.3799C59.9092 57.4515 60.8981 56.735 62.0283 56.2305C63.1585 55.7259 64.3644 55.4736 65.646 55.4736C66.1909 55.4736 66.7106 55.514 67.2051 55.5947C67.7096 55.6755 68.1789 55.7865 68.6128 55.9277C69.0467 56.0589 69.4403 56.2153 69.7935 56.397C70.1567 56.5786 70.4696 56.7754 70.7319 56.9873C70.7925 57.0378 70.7723 57.1639 70.6714 57.3657C70.5705 57.5675 70.4342 57.7946 70.2627 58.0469C70.1012 58.2891 69.9297 58.5312 69.748 58.7734C69.5664 59.0055 69.415 59.1821 69.2939 59.3032L68.6128 59.167C68.0981 58.5615 67.4927 58.0923 66.7964 57.7593C66.1102 57.4162 65.3281 57.2446 64.4502 57.2446C64.1071 57.2446 63.7337 57.3052 63.3301 57.4263C62.9365 57.5474 62.543 57.7441 62.1494 58.0166C61.766 58.279 61.3926 58.6271 61.0293 59.061C60.666 59.4849 60.3481 60.0046 60.0757 60.6201C59.8032 61.2357 59.5812 61.9521 59.4097 62.7695C59.2482 63.5869 59.1675 64.5203 59.1675 65.5698C59.1675 66.8918 59.3542 68.0472 59.7275 69.0361C60.1009 70.015 60.5802 70.8324 61.1655 71.4883C61.7508 72.1341 62.4067 72.6185 63.1333 72.9414C63.8599 73.2542 64.5713 73.4106 65.2676 73.4106C65.54 73.4106 65.8579 73.3703 66.2212 73.2896C66.5845 73.2088 66.9831 73.0776 67.417 72.896C67.8509 72.7043 68.3151 72.457 68.8096 72.1543C69.3141 71.8415 69.8389 71.458 70.3838 71.0039C70.4342 71.0342 70.4897 71.0897 70.5503 71.1704C70.6108 71.241 70.6714 71.3218 70.7319 71.4126C70.7925 71.4933 70.848 71.5741 70.8984 71.6548C70.9489 71.7254 70.9893 71.7759 71.0195 71.8062ZM84.0522 68.1885C84.0522 67.3913 83.9362 66.6344 83.7041 65.918C83.472 65.1914 83.1642 64.5557 82.7808 64.0107C82.4074 63.4557 81.9735 63.0168 81.479 62.6938C80.9946 62.3709 80.4951 62.2095 79.9805 62.2095C79.2539 62.2095 78.6484 62.3558 78.1641 62.6484C77.6797 62.931 77.2912 63.3245 76.9985 63.8291C76.7059 64.3337 76.494 64.929 76.3628 65.6152C76.2417 66.3014 76.1812 67.0431 76.1812 67.8403C76.1812 68.6375 76.3022 69.3944 76.5444 70.1108C76.7967 70.8172 77.1196 71.4378 77.5132 71.9727C77.9067 72.5075 78.3457 72.9313 78.8301 73.2441C79.3145 73.557 79.7887 73.7134 80.2529 73.7134C80.929 73.7134 81.5042 73.5872 81.9785 73.335C82.4629 73.0726 82.8564 72.7043 83.1592 72.23C83.472 71.7557 83.6991 71.1755 83.8403 70.4893C83.9816 69.8031 84.0522 69.0361 84.0522 68.1885ZM86.8828 67.6587C86.8828 68.6678 86.6911 69.6416 86.3076 70.5801C85.9342 71.5186 85.4246 72.3511 84.7788 73.0776C84.133 73.7941 83.3812 74.3693 82.5234 74.8032C81.6758 75.2371 80.7777 75.4541 79.8291 75.4541C78.8402 75.4541 77.9471 75.2725 77.1499 74.9092C76.3527 74.5459 75.6715 74.0464 75.1064 73.4106C74.5413 72.7749 74.1024 72.0181 73.7896 71.1401C73.4868 70.2622 73.3354 69.3086 73.3354 68.2793C73.3354 67.6133 73.4162 66.9574 73.5776 66.3115C73.7492 65.6657 73.9863 65.0552 74.2891 64.48C74.5918 63.8947 74.9551 63.3599 75.3789 62.8755C75.8128 62.381 76.2922 61.9572 76.8169 61.604C77.3416 61.2508 77.9067 60.9733 78.5122 60.7715C79.1177 60.5697 79.7534 60.4688 80.4194 60.4688C81.3983 60.4688 82.2812 60.6504 83.0684 61.0137C83.8656 61.377 84.5467 61.8815 85.1118 62.5273C85.6769 63.1631 86.1108 63.9199 86.4136 64.7979C86.7264 65.6758 86.8828 66.6294 86.8828 67.6587ZM106.106 75V74.1978C106.833 74.006 107.343 73.8395 107.635 73.6982C107.938 73.557 108.089 73.4157 108.089 73.2744V65.5698C108.089 64.9543 108.054 64.4497 107.983 64.0562C107.923 63.6626 107.822 63.3548 107.681 63.1328C107.549 62.9007 107.378 62.7443 107.166 62.6636C106.964 62.5828 106.717 62.5425 106.424 62.5425C105.829 62.5425 105.163 62.8351 104.426 63.4204C103.69 63.9956 102.958 64.813 102.231 65.8726V73.2744C102.231 73.3451 102.262 73.4157 102.322 73.4863C102.393 73.5469 102.504 73.6125 102.655 73.6831C102.817 73.7537 103.029 73.8345 103.291 73.9253C103.563 74.006 103.896 74.0968 104.29 74.1978V75H97.5088V74.1978C98.2354 74.006 98.75 73.8395 99.0527 73.6982C99.3555 73.557 99.5068 73.4157 99.5068 73.2744V65.5698C99.5068 64.9543 99.4766 64.4497 99.416 64.0562C99.3555 63.6626 99.2596 63.3548 99.1284 63.1328C99.0073 62.9007 98.8408 62.7443 98.6289 62.6636C98.4271 62.5828 98.1748 62.5425 97.8721 62.5425C97.2666 62.5425 96.6107 62.8301 95.9043 63.4053C95.208 63.9805 94.4512 64.8029 93.6338 65.8726V73.2744C93.6338 73.4258 93.8104 73.5822 94.1636 73.7437C94.5168 73.9051 95.0213 74.0565 95.6772 74.1978V75H88.8354V74.1978C89.5015 74.0262 90.0111 73.8748 90.3643 73.7437C90.7275 73.6024 90.9092 73.446 90.9092 73.2744V64.3438C90.9092 63.9401 90.889 63.6222 90.8486 63.3901C90.8184 63.158 90.7326 62.9814 90.5913 62.8604C90.4601 62.7292 90.2533 62.6333 89.9707 62.5728C89.6982 62.5122 89.3198 62.4517 88.8354 62.3911V61.6343C89.2593 61.5737 89.6478 61.5031 90.001 61.4224C90.3643 61.3416 90.7023 61.2559 91.0151 61.165C91.3381 61.0641 91.6458 60.9582 91.9385 60.8472C92.2412 60.7261 92.5439 60.5999 92.8467 60.4688L93.4067 61.0288L93.5732 63.9653C94.5521 62.7342 95.4906 61.8462 96.3887 61.3013C97.2868 60.7463 98.0991 60.4688 98.8257 60.4688C99.3101 60.4688 99.749 60.5293 100.143 60.6504C100.546 60.7614 100.889 60.943 101.172 61.1953C101.465 61.4476 101.692 61.7756 101.853 62.1792C102.025 62.5728 102.12 63.047 102.141 63.6021L102.156 63.8896C103.104 62.709 104.023 61.8462 104.911 61.3013C105.809 60.7463 106.631 60.4688 107.378 60.4688C107.862 60.4688 108.311 60.5394 108.725 60.6807C109.139 60.8118 109.502 61.0187 109.815 61.3013C110.128 61.5838 110.37 61.9471 110.542 62.3911C110.723 62.825 110.814 63.3498 110.814 63.9653V73.2744C110.814 73.4157 110.97 73.557 111.283 73.6982C111.596 73.8294 112.151 73.9959 112.948 74.1978V75H106.106ZM131.445 75V74.1978C132.172 74.006 132.681 73.8395 132.974 73.6982C133.277 73.557 133.428 73.4157 133.428 73.2744V65.5698C133.428 64.9543 133.393 64.4497 133.322 64.0562C133.262 63.6626 133.161 63.3548 133.02 63.1328C132.888 62.9007 132.717 62.7443 132.505 62.6636C132.303 62.5828 132.056 62.5425 131.763 62.5425C131.168 62.5425 130.502 62.8351 129.765 63.4204C129.028 63.9956 128.297 64.813 127.57 65.8726V73.2744C127.57 73.3451 127.601 73.4157 127.661 73.4863C127.732 73.5469 127.843 73.6125 127.994 73.6831C128.156 73.7537 128.368 73.8345 128.63 73.9253C128.902 74.006 129.235 74.0968 129.629 74.1978V75H122.848V74.1978C123.574 74.006 124.089 73.8395 124.392 73.6982C124.694 73.557 124.846 73.4157 124.846 73.2744V65.5698C124.846 64.9543 124.815 64.4497 124.755 64.0562C124.694 63.6626 124.598 63.3548 124.467 63.1328C124.346 62.9007 124.18 62.7443 123.968 62.6636C123.766 62.5828 123.514 62.5425 123.211 62.5425C122.605 62.5425 121.95 62.8301 121.243 63.4053C120.547 63.9805 119.79 64.8029 118.973 65.8726V73.2744C118.973 73.4258 119.149 73.5822 119.502 73.7437C119.856 73.9051 120.36 74.0565 121.016 74.1978V75H114.174V74.1978C114.84 74.0262 115.35 73.8748 115.703 73.7437C116.066 73.6024 116.248 73.446 116.248 73.2744V64.3438C116.248 63.9401 116.228 63.6222 116.188 63.3901C116.157 63.158 116.071 62.9814 115.93 62.8604C115.799 62.7292 115.592 62.6333 115.31 62.5728C115.037 62.5122 114.659 62.4517 114.174 62.3911V61.6343C114.598 61.5737 114.987 61.5031 115.34 61.4224C115.703 61.3416 116.041 61.2559 116.354 61.165C116.677 61.0641 116.985 60.9582 117.277 60.8472C117.58 60.7261 117.883 60.5999 118.186 60.4688L118.746 61.0288L118.912 63.9653C119.891 62.7342 120.829 61.8462 121.728 61.3013C122.626 60.7463 123.438 60.4688 124.165 60.4688C124.649 60.4688 125.088 60.5293 125.481 60.6504C125.885 60.7614 126.228 60.943 126.511 61.1953C126.803 61.4476 127.03 61.7756 127.192 62.1792C127.363 62.5728 127.459 63.047 127.479 63.6021L127.495 63.8896C128.443 62.709 129.361 61.8462 130.25 61.3013C131.148 60.7463 131.97 60.4688 132.717 60.4688C133.201 60.4688 133.65 60.5394 134.064 60.6807C134.478 60.8118 134.841 61.0187 135.154 61.3013C135.467 61.5838 135.709 61.9471 135.88 62.3911C136.062 62.825 136.153 63.3498 136.153 63.9653V73.2744C136.153 73.4157 136.309 73.557 136.622 73.6982C136.935 73.8294 137.49 73.9959 138.287 74.1978V75H131.445ZM146.294 62.1338C145.79 62.1338 145.331 62.2347 144.917 62.4365C144.513 62.6283 144.16 62.9058 143.857 63.269C143.555 63.6222 143.302 64.0511 143.101 64.5557C142.909 65.0602 142.773 65.6152 142.692 66.2207H148.686C148.918 66.2207 149.069 66.1854 149.14 66.1147C149.221 66.034 149.261 65.8877 149.261 65.6758C149.261 65.3932 149.221 65.0501 149.14 64.6465C149.059 64.2428 148.908 63.8543 148.686 63.481C148.474 63.1076 148.176 62.7897 147.793 62.5273C147.41 62.265 146.91 62.1338 146.294 62.1338ZM152.122 66.5991C151.94 66.8009 151.673 67.0028 151.32 67.2046C150.967 67.3963 150.629 67.5578 150.306 67.689H142.616C142.626 68.4559 142.732 69.1825 142.934 69.8687C143.136 70.5448 143.418 71.1351 143.782 71.6396C144.145 72.1442 144.584 72.5479 145.099 72.8506C145.623 73.1432 146.214 73.2896 146.87 73.2896C147.182 73.2896 147.485 73.2694 147.778 73.229C148.081 73.1886 148.403 73.1029 148.747 72.9717C149.09 72.8304 149.473 72.6286 149.897 72.3662C150.321 72.1038 150.82 71.7507 151.396 71.3066C151.527 71.3773 151.653 71.4984 151.774 71.6699C151.895 71.8415 151.981 71.9676 152.031 72.0483C151.345 72.7749 150.74 73.3602 150.215 73.8042C149.69 74.2482 149.191 74.5964 148.716 74.8486C148.252 75.0908 147.788 75.2523 147.324 75.333C146.87 75.4137 146.37 75.4541 145.825 75.4541C145.018 75.4541 144.251 75.2876 143.524 74.9546C142.808 74.6115 142.177 74.1322 141.632 73.5166C141.087 72.901 140.653 72.1593 140.331 71.2915C140.008 70.4237 139.846 69.4549 139.846 68.3853C139.846 67.7091 139.917 67.0482 140.058 66.4023C140.209 65.7565 140.421 65.151 140.694 64.5859C140.976 64.0208 141.319 63.4961 141.723 63.0117C142.127 62.5273 142.591 62.1035 143.116 61.7402C143.358 61.5687 143.625 61.4072 143.918 61.2559C144.211 61.1045 144.513 60.9733 144.826 60.8623C145.149 60.7412 145.477 60.6453 145.81 60.5747C146.143 60.5041 146.461 60.4688 146.764 60.4688C147.42 60.4688 148.01 60.5545 148.535 60.7261C149.059 60.8976 149.519 61.1348 149.912 61.4375C150.316 61.7301 150.654 62.0783 150.926 62.4819C151.209 62.8856 151.436 63.3145 151.607 63.7686C151.789 64.2227 151.92 64.6919 152.001 65.1763C152.082 65.6606 152.122 66.1349 152.122 66.5991ZM165.458 61.0591C165.548 61.1196 165.584 61.3215 165.563 61.6646C165.543 61.9976 165.488 62.3861 165.397 62.8301C165.316 63.2741 165.21 63.7231 165.079 64.1772C164.948 64.6213 164.822 64.9795 164.701 65.252H163.898C163.787 64.4346 163.586 63.8241 163.293 63.4204C163 63.0168 162.642 62.8149 162.218 62.8149C162.006 62.8149 161.759 62.8906 161.477 63.042C161.204 63.1934 160.917 63.4406 160.614 63.7837C160.311 64.1167 160.008 64.5557 159.706 65.1006C159.413 65.6455 159.135 66.3166 158.873 67.1138V73.2744C158.873 73.4258 159.07 73.5822 159.463 73.7437C159.857 73.9051 160.528 74.0565 161.477 74.1978V75H154.075V74.1978C154.741 74.0464 155.25 73.9001 155.604 73.7588C155.967 73.6074 156.148 73.446 156.148 73.2744V64.7222C156.148 64.3892 156.138 64.1117 156.118 63.8896C156.098 63.6576 156.073 63.4709 156.042 63.3296C156.012 63.1883 155.972 63.0773 155.921 62.9966C155.881 62.9159 155.841 62.8503 155.8 62.7998C155.73 62.7292 155.654 62.6737 155.573 62.6333C155.493 62.5828 155.387 62.5425 155.255 62.5122C155.124 62.4819 154.963 62.4618 154.771 62.4517C154.589 62.4315 154.357 62.4113 154.075 62.3911V61.6343C154.478 61.5535 154.857 61.4728 155.21 61.3921C155.563 61.3114 155.901 61.2256 156.224 61.1348C156.547 61.0439 156.86 60.9481 157.163 60.8472C157.475 60.7362 157.783 60.61 158.086 60.4688L158.646 61.0288L158.843 64.0562C159.115 63.5516 159.413 63.0824 159.736 62.6484C160.069 62.2145 160.417 61.8361 160.78 61.5132C161.154 61.1903 161.542 60.938 161.946 60.7563C162.36 60.5646 162.783 60.4688 163.217 60.4688C163.57 60.4688 163.939 60.5142 164.322 60.605C164.706 60.6958 165.084 60.8472 165.458 61.0591ZM177.052 70.7163C177.052 71.4328 176.946 72.0483 176.734 72.563C176.533 73.0675 176.265 73.4964 175.932 73.8496C175.609 74.2028 175.241 74.4854 174.827 74.6973C174.424 74.9092 174.015 75.0706 173.601 75.1816C173.197 75.2926 172.814 75.3633 172.451 75.3936C172.097 75.4339 171.81 75.4541 171.588 75.4541C171.315 75.4541 171.018 75.4289 170.695 75.3784C170.372 75.3381 170.034 75.2725 169.681 75.1816C169.338 75.0908 168.984 74.9748 168.621 74.8335C168.258 74.6922 167.91 74.5308 167.577 74.3491C167.506 74.3188 167.456 74.1523 167.425 73.8496C167.405 73.5368 167.395 73.1785 167.395 72.7749C167.405 72.3612 167.435 71.9373 167.486 71.5034C167.536 71.0695 167.602 70.7163 167.683 70.4438L168.515 70.6104C168.566 71.0745 168.697 71.5034 168.909 71.897C169.121 72.2804 169.393 72.6185 169.726 72.9111C170.059 73.1937 170.443 73.4157 170.876 73.5771C171.31 73.7386 171.775 73.8193 172.269 73.8193C172.996 73.8193 173.571 73.6326 173.995 73.2593C174.418 72.8758 174.63 72.346 174.63 71.6699C174.63 71.2663 174.524 70.908 174.312 70.5952C174.101 70.2824 173.818 69.9948 173.465 69.7324C173.122 69.4701 172.728 69.2228 172.284 68.9907C171.84 68.7586 171.386 68.5215 170.922 68.2793C170.498 68.0674 170.084 67.8403 169.681 67.5981C169.277 67.3459 168.914 67.0684 168.591 66.7656C168.278 66.4528 168.026 66.1097 167.834 65.7363C167.642 65.3529 167.546 64.9189 167.546 64.4346C167.546 63.8089 167.683 63.2489 167.955 62.7544C168.228 62.2599 168.586 61.8462 169.03 61.5132C169.474 61.1701 169.983 60.9128 170.559 60.7412C171.144 60.5596 171.739 60.4688 172.345 60.4688C172.698 60.4688 173.071 60.499 173.465 60.5596C173.868 60.61 174.257 60.6857 174.63 60.7866C175.014 60.8875 175.367 61.0086 175.69 61.1499C176.023 61.2912 176.295 61.4526 176.507 61.6343C176.568 61.6847 176.578 61.8311 176.538 62.0732C176.497 62.3053 176.427 62.5677 176.326 62.8604C176.235 63.1429 176.129 63.4204 176.008 63.6929C175.897 63.9552 175.801 64.1369 175.72 64.2378L174.979 64.1167C174.575 63.3397 174.116 62.7796 173.601 62.4365C173.097 62.0833 172.572 61.9067 172.027 61.9067C171.704 61.9067 171.411 61.9572 171.149 62.0581C170.897 62.159 170.68 62.2902 170.498 62.4517C170.326 62.603 170.195 62.7796 170.104 62.9814C170.014 63.1833 169.968 63.3901 169.968 63.6021C169.968 63.925 170.059 64.2176 170.241 64.48C170.422 64.7323 170.665 64.9744 170.967 65.2065C171.28 65.4285 171.638 65.6455 172.042 65.8574C172.456 66.0693 172.89 66.2964 173.344 66.5386C173.778 66.7606 174.217 66.9977 174.661 67.25C175.105 67.5023 175.503 67.7949 175.856 68.1279C176.21 68.4508 176.497 68.8242 176.719 69.248C176.941 69.6618 177.052 70.1512 177.052 70.7163ZM185.953 62.1338C185.448 62.1338 184.989 62.2347 184.575 62.4365C184.172 62.6283 183.818 62.9058 183.516 63.269C183.213 63.6222 182.961 64.0511 182.759 64.5557C182.567 65.0602 182.431 65.6152 182.35 66.2207H188.344C188.576 66.2207 188.728 66.1854 188.798 66.1147C188.879 66.034 188.919 65.8877 188.919 65.6758C188.919 65.3932 188.879 65.0501 188.798 64.6465C188.718 64.2428 188.566 63.8543 188.344 63.481C188.132 63.1076 187.835 62.7897 187.451 62.5273C187.068 62.265 186.568 62.1338 185.953 62.1338ZM191.78 66.5991C191.599 66.8009 191.331 67.0028 190.978 67.2046C190.625 67.3963 190.287 67.5578 189.964 67.689H182.274C182.285 68.4559 182.39 69.1825 182.592 69.8687C182.794 70.5448 183.077 71.1351 183.44 71.6396C183.803 72.1442 184.242 72.5479 184.757 72.8506C185.282 73.1432 185.872 73.2896 186.528 73.2896C186.841 73.2896 187.143 73.2694 187.436 73.229C187.739 73.1886 188.062 73.1029 188.405 72.9717C188.748 72.8304 189.131 72.6286 189.555 72.3662C189.979 72.1038 190.479 71.7507 191.054 71.3066C191.185 71.3773 191.311 71.4984 191.432 71.6699C191.553 71.8415 191.639 71.9676 191.689 72.0483C191.003 72.7749 190.398 73.3602 189.873 73.8042C189.348 74.2482 188.849 74.5964 188.375 74.8486C187.91 75.0908 187.446 75.2523 186.982 75.333C186.528 75.4137 186.028 75.4541 185.483 75.4541C184.676 75.4541 183.909 75.2876 183.183 74.9546C182.466 74.6115 181.835 74.1322 181.291 73.5166C180.746 72.901 180.312 72.1593 179.989 71.2915C179.666 70.4237 179.504 69.4549 179.504 68.3853C179.504 67.7091 179.575 67.0482 179.716 66.4023C179.868 65.7565 180.08 65.151 180.352 64.5859C180.635 64.0208 180.978 63.4961 181.381 63.0117C181.785 62.5273 182.249 62.1035 182.774 61.7402C183.016 61.5687 183.284 61.4072 183.576 61.2559C183.869 61.1045 184.172 60.9733 184.484 60.8623C184.807 60.7412 185.135 60.6453 185.468 60.5747C185.801 60.5041 186.119 60.4688 186.422 60.4688C187.078 60.4688 187.668 60.5545 188.193 60.7261C188.718 60.8976 189.177 61.1348 189.57 61.4375C189.974 61.7301 190.312 62.0783 190.584 62.4819C190.867 62.8856 191.094 63.3145 191.266 63.7686C191.447 64.2227 191.578 64.6919 191.659 65.1763C191.74 65.6606 191.78 66.1349 191.78 66.5991Z" fill="black"/>
</svg>
